# xmcd CD database file
#
# Track frame offsets:
#	150
#	20650
#	37530
#	59180
#	81681
#	106655
#	127027
#	147918
#	164552
#	186905
#	207656
#	228181
#	247587
#
# Disc length: 3569 seconds
#
# Revision: 0
# Processed by: cddbd v1.5.1PL2 Copyright (c) Steve Scherf et al.
# Submitted via: CDex 1.51
#
DISCID=b60def0d
DTITLE=中村由利子 - LOVERS
DYEAR=2005
DGENRE=Jazz
TTITLE0=Missing U
TTITLE1=All In Theme
TTITLE2=会いたい
TTITLE3=初めから今まで
TTITLE4=母のピアノ
TTITLE5=Remember
TTITLE6=願い
TTITLE7=あなたが微笑む日
TTITLE8=隠された歳月
TTITLE9=どれくらい僕が
TTITLE10=プロローグ〜ダシト・・・
TTITLE11=伝説の中の愛
TTITLE12=Lovers-恋人たち-
EXTD=YEAR: 2005
EXTT0=
EXTT1=
EXTT2=
EXTT3=
EXTT4=
EXTT5=
EXTT6=
EXTT7=
EXTT8=
EXTT9=
EXTT10=
EXTT11=
EXTT12=
PLAYORDER=
